<mxfile host="app.diagrams.net" agent="Mozilla/5.0 (Macintosh; Intel Mac OS X 10.15; rv:128.0) Gecko/20100101 Firefox/128.0" version="24.7.5">
  <diagram name="Page-1" id="xePpAwtWUjEFdL4y1r4D">
    <mxGraphModel dx="794" dy="765" grid="1" gridSize="10" guides="1" tooltips="1" connect="1" arrows="1" fold="1" page="1" pageScale="1" pageWidth="850" pageHeight="1100" math="0" shadow="0">
      <root>
        <mxCell id="0" />
        <mxCell id="1" parent="0" />
        <mxCell id="pcEnY2RNjyqCKXGkyiXo-41" value="" style="rounded=0;whiteSpace=wrap;html=1;" parent="1" vertex="1">
          <mxGeometry x="40" y="590" width="290" height="210" as="geometry" />
        </mxCell>
        <mxCell id="pcEnY2RNjyqCKXGkyiXo-20" style="edgeStyle=none;rounded=0;orthogonalLoop=1;jettySize=auto;html=1;exitX=0.5;exitY=1;exitDx=0;exitDy=0;entryX=0.5;entryY=0;entryDx=0;entryDy=0;" parent="1" source="pcEnY2RNjyqCKXGkyiXo-3" target="pcEnY2RNjyqCKXGkyiXo-6" edge="1">
          <mxGeometry relative="1" as="geometry">
            <Array as="points">
              <mxPoint x="300" y="210" />
            </Array>
          </mxGeometry>
        </mxCell>
        <mxCell id="pcEnY2RNjyqCKXGkyiXo-3" value="&lt;div&gt;&lt;b&gt;NCBI&lt;/b&gt;&lt;/div&gt;&lt;div&gt;&lt;b&gt;TSA&lt;br&gt;&lt;/b&gt;&lt;/div&gt;" style="ellipse;whiteSpace=wrap;html=1;aspect=fixed;" parent="1" vertex="1">
          <mxGeometry x="220" y="130" width="70" height="70" as="geometry" />
        </mxCell>
        <mxCell id="pcEnY2RNjyqCKXGkyiXo-21" style="edgeStyle=none;rounded=0;orthogonalLoop=1;jettySize=auto;html=1;exitX=0.5;exitY=1;exitDx=0;exitDy=0;" parent="1" source="pcEnY2RNjyqCKXGkyiXo-4" edge="1">
          <mxGeometry relative="1" as="geometry">
            <mxPoint x="300" y="240" as="targetPoint" />
            <Array as="points">
              <mxPoint x="300" y="210" />
            </Array>
          </mxGeometry>
        </mxCell>
        <mxCell id="pcEnY2RNjyqCKXGkyiXo-4" value="&lt;div&gt;&lt;b&gt;GenBank&lt;/b&gt;&lt;/div&gt;&lt;div&gt;&lt;b&gt;gbvrl*&lt;br&gt;&lt;/b&gt;&lt;/div&gt;" style="ellipse;whiteSpace=wrap;html=1;aspect=fixed;" parent="1" vertex="1">
          <mxGeometry x="310" y="130" width="70" height="70" as="geometry" />
        </mxCell>
        <mxCell id="pcEnY2RNjyqCKXGkyiXo-24" style="edgeStyle=none;rounded=0;orthogonalLoop=1;jettySize=auto;html=1;entryX=0.5;entryY=0;entryDx=0;entryDy=0;" parent="1" source="pcEnY2RNjyqCKXGkyiXo-5" target="pcEnY2RNjyqCKXGkyiXo-23" edge="1">
          <mxGeometry relative="1" as="geometry" />
        </mxCell>
        <mxCell id="pcEnY2RNjyqCKXGkyiXo-5" value="palm_annot" style="rounded=1;whiteSpace=wrap;html=1;fillColor=#f5f5f5;strokeColor=#666666;fontColor=#333333;" parent="1" vertex="1">
          <mxGeometry x="250" y="290" width="100" height="60" as="geometry" />
        </mxCell>
        <mxCell id="pcEnY2RNjyqCKXGkyiXo-22" style="edgeStyle=none;rounded=0;orthogonalLoop=1;jettySize=auto;html=1;entryX=0.5;entryY=0;entryDx=0;entryDy=0;" parent="1" source="pcEnY2RNjyqCKXGkyiXo-6" target="pcEnY2RNjyqCKXGkyiXo-5" edge="1">
          <mxGeometry relative="1" as="geometry" />
        </mxCell>
        <mxCell id="pcEnY2RNjyqCKXGkyiXo-6" value="&lt;font size=&quot;1&quot;&gt;&lt;b&gt;&lt;font style=&quot;font-size: 17px;&quot;&gt;+&lt;/font&gt;&lt;/b&gt;&lt;/font&gt;" style="ellipse;whiteSpace=wrap;html=1;aspect=fixed;" parent="1" vertex="1">
          <mxGeometry x="290" y="240" width="20" height="20" as="geometry" />
        </mxCell>
        <mxCell id="pcEnY2RNjyqCKXGkyiXo-31" style="edgeStyle=none;rounded=0;orthogonalLoop=1;jettySize=auto;html=1;entryX=0.5;entryY=0;entryDx=0;entryDy=0;" parent="1" source="pcEnY2RNjyqCKXGkyiXo-23" target="pcEnY2RNjyqCKXGkyiXo-30" edge="1">
          <mxGeometry relative="1" as="geometry" />
        </mxCell>
        <mxCell id="pcEnY2RNjyqCKXGkyiXo-45" style="edgeStyle=none;rounded=0;orthogonalLoop=1;jettySize=auto;html=1;entryX=0;entryY=0.5;entryDx=0;entryDy=0;" parent="1" source="pcEnY2RNjyqCKXGkyiXo-23" target="pcEnY2RNjyqCKXGkyiXo-44" edge="1">
          <mxGeometry relative="1" as="geometry" />
        </mxCell>
        <mxCell id="pcEnY2RNjyqCKXGkyiXo-23" value="&lt;div&gt;all_intact_palmprints.faa&lt;/div&gt;" style="rounded=0;whiteSpace=wrap;html=1;" parent="1" vertex="1">
          <mxGeometry x="230" y="380" width="140" height="20" as="geometry" />
        </mxCell>
        <mxCell id="pcEnY2RNjyqCKXGkyiXo-28" style="edgeStyle=none;rounded=0;orthogonalLoop=1;jettySize=auto;html=1;entryX=0.5;entryY=0;entryDx=0;entryDy=0;" parent="1" source="pcEnY2RNjyqCKXGkyiXo-25" target="pcEnY2RNjyqCKXGkyiXo-26" edge="1">
          <mxGeometry relative="1" as="geometry" />
        </mxCell>
        <mxCell id="pcEnY2RNjyqCKXGkyiXo-25" value="&lt;div&gt;existing_sotus.faa&lt;/div&gt;" style="rounded=0;whiteSpace=wrap;html=1;" parent="1" vertex="1">
          <mxGeometry x="80" y="260" width="120" height="20" as="geometry" />
        </mxCell>
        <mxCell id="pcEnY2RNjyqCKXGkyiXo-29" style="edgeStyle=none;rounded=0;orthogonalLoop=1;jettySize=auto;html=1;entryX=0.5;entryY=0;entryDx=0;entryDy=0;" parent="1" source="pcEnY2RNjyqCKXGkyiXo-26" target="pcEnY2RNjyqCKXGkyiXo-27" edge="1">
          <mxGeometry relative="1" as="geometry" />
        </mxCell>
        <mxCell id="pcEnY2RNjyqCKXGkyiXo-26" value="&lt;div&gt;usearch&lt;/div&gt;&lt;div&gt;(makeudb_search)&lt;br&gt;&lt;/div&gt;" style="rounded=1;whiteSpace=wrap;html=1;fillColor=#f5f5f5;strokeColor=#666666;fontColor=#333333;" parent="1" vertex="1">
          <mxGeometry x="80" y="310" width="120" height="40" as="geometry" />
        </mxCell>
        <mxCell id="pcEnY2RNjyqCKXGkyiXo-32" style="edgeStyle=none;rounded=0;orthogonalLoop=1;jettySize=auto;html=1;exitX=0.5;exitY=1;exitDx=0;exitDy=0;entryX=0;entryY=0.5;entryDx=0;entryDy=0;" parent="1" source="pcEnY2RNjyqCKXGkyiXo-27" target="pcEnY2RNjyqCKXGkyiXo-30" edge="1">
          <mxGeometry relative="1" as="geometry">
            <Array as="points">
              <mxPoint x="140" y="450" />
            </Array>
          </mxGeometry>
        </mxCell>
        <mxCell id="pcEnY2RNjyqCKXGkyiXo-27" value="&lt;div&gt;existing_sotus.udb&lt;/div&gt;" style="rounded=0;whiteSpace=wrap;html=1;" parent="1" vertex="1">
          <mxGeometry x="80" y="380" width="120" height="20" as="geometry" />
        </mxCell>
        <mxCell id="pcEnY2RNjyqCKXGkyiXo-34" style="edgeStyle=none;rounded=0;orthogonalLoop=1;jettySize=auto;html=1;entryX=0;entryY=0.5;entryDx=0;entryDy=0;" parent="1" source="pcEnY2RNjyqCKXGkyiXo-30" target="pcEnY2RNjyqCKXGkyiXo-33" edge="1">
          <mxGeometry relative="1" as="geometry" />
        </mxCell>
        <mxCell id="pcEnY2RNjyqCKXGkyiXo-30" value="&lt;div&gt;usearch&lt;/div&gt;&lt;div&gt;(usearch_global -id 0.9)&lt;br&gt;&lt;/div&gt;" style="rounded=1;whiteSpace=wrap;html=1;fillColor=#f5f5f5;strokeColor=#666666;fontColor=#333333;" parent="1" vertex="1">
          <mxGeometry x="230" y="430" width="140" height="40" as="geometry" />
        </mxCell>
        <mxCell id="pcEnY2RNjyqCKXGkyiXo-33" value="&lt;div&gt;palmprints matching an existing sOTU&lt;/div&gt;" style="rounded=0;whiteSpace=wrap;html=1;dashed=1;dashPattern=8 8;" parent="1" vertex="1">
          <mxGeometry x="410" y="430" width="120" height="42.5" as="geometry" />
        </mxCell>
        <mxCell id="pcEnY2RNjyqCKXGkyiXo-35" value="&lt;div&gt;External&lt;/div&gt;&lt;div&gt;Dataset&lt;br&gt;&lt;/div&gt;" style="ellipse;whiteSpace=wrap;html=1;aspect=fixed;" parent="1" vertex="1">
          <mxGeometry x="55" y="720" width="70" height="70" as="geometry" />
        </mxCell>
        <mxCell id="pcEnY2RNjyqCKXGkyiXo-36" value="&lt;div&gt;File&lt;/div&gt;&lt;div&gt;(concrete data)&lt;br&gt;&lt;/div&gt;" style="rounded=0;whiteSpace=wrap;html=1;" parent="1" vertex="1">
          <mxGeometry x="55" y="620" width="95" height="40" as="geometry" />
        </mxCell>
        <mxCell id="pcEnY2RNjyqCKXGkyiXo-37" value="&lt;div&gt;Set&lt;/div&gt;&lt;div&gt;(abstract data)&lt;br&gt;&lt;/div&gt;" style="rounded=0;whiteSpace=wrap;html=1;dashed=1;dashPattern=8 8;" parent="1" vertex="1">
          <mxGeometry x="55" y="670" width="95" height="40" as="geometry" />
        </mxCell>
        <mxCell id="pcEnY2RNjyqCKXGkyiXo-38" value="&lt;div&gt;Program&lt;/div&gt;&lt;div&gt;(concrete computation)&lt;br&gt;&lt;/div&gt;" style="rounded=1;whiteSpace=wrap;html=1;fillColor=#f5f5f5;strokeColor=#666666;fontColor=#333333;" parent="1" vertex="1">
          <mxGeometry x="170" y="620" width="140" height="40" as="geometry" />
        </mxCell>
        <mxCell id="pcEnY2RNjyqCKXGkyiXo-40" value="Symbol Legend" style="text;html=1;align=center;verticalAlign=middle;whiteSpace=wrap;rounded=0;fontStyle=1" parent="1" vertex="1">
          <mxGeometry x="50" y="590" width="100" height="30" as="geometry" />
        </mxCell>
        <mxCell id="pcEnY2RNjyqCKXGkyiXo-50" style="edgeStyle=none;rounded=0;orthogonalLoop=1;jettySize=auto;html=1;entryX=0.5;entryY=0;entryDx=0;entryDy=0;" parent="1" source="pcEnY2RNjyqCKXGkyiXo-42" target="pcEnY2RNjyqCKXGkyiXo-49" edge="1">
          <mxGeometry relative="1" as="geometry" />
        </mxCell>
        <mxCell id="pcEnY2RNjyqCKXGkyiXo-42" value="&lt;div&gt;palmprints &lt;b&gt;not&lt;/b&gt; matching an existing sOTU&lt;/div&gt;" style="rounded=0;whiteSpace=wrap;html=1;dashed=1;dashPattern=8 8;" parent="1" vertex="1">
          <mxGeometry x="550" y="460" width="140" height="40" as="geometry" />
        </mxCell>
        <mxCell id="pcEnY2RNjyqCKXGkyiXo-43" value="&lt;font size=&quot;1&quot;&gt;&lt;b&gt;âˆ©&lt;/b&gt;&lt;/font&gt;" style="ellipse;whiteSpace=wrap;html=1;aspect=fixed;" parent="1" vertex="1">
          <mxGeometry x="510" y="380" width="20" height="20" as="geometry" />
        </mxCell>
        <mxCell id="pcEnY2RNjyqCKXGkyiXo-44" value="/" style="text;html=1;align=center;verticalAlign=middle;whiteSpace=wrap;rounded=0;" parent="1" vertex="1">
          <mxGeometry x="510" y="380" width="20" height="20" as="geometry" />
        </mxCell>
        <mxCell id="pcEnY2RNjyqCKXGkyiXo-47" value="" style="curved=1;endArrow=classic;html=1;rounded=0;exitX=0.5;exitY=0;exitDx=0;exitDy=0;" parent="1" source="pcEnY2RNjyqCKXGkyiXo-33" edge="1">
          <mxGeometry width="50" height="50" relative="1" as="geometry">
            <mxPoint x="470" y="470" as="sourcePoint" />
            <mxPoint x="560" y="458" as="targetPoint" />
            <Array as="points">
              <mxPoint x="480" y="400" />
              <mxPoint x="560" y="400" />
            </Array>
          </mxGeometry>
        </mxCell>
        <mxCell id="pcEnY2RNjyqCKXGkyiXo-48" value="&lt;div&gt;Process&lt;/div&gt;&lt;div&gt;(abstract computation)&lt;br&gt;&lt;/div&gt;" style="rounded=1;whiteSpace=wrap;html=1;fillColor=#f5f5f5;strokeColor=#666666;fontColor=#333333;dashed=1;dashPattern=8 8;" parent="1" vertex="1">
          <mxGeometry x="170" y="670" width="140" height="40" as="geometry" />
        </mxCell>
        <mxCell id="pcEnY2RNjyqCKXGkyiXo-52" style="edgeStyle=none;rounded=0;orthogonalLoop=1;jettySize=auto;html=1;entryX=0.5;entryY=0;entryDx=0;entryDy=0;" parent="1" source="pcEnY2RNjyqCKXGkyiXo-49" target="pcEnY2RNjyqCKXGkyiXo-51" edge="1">
          <mxGeometry relative="1" as="geometry" />
        </mxCell>
        <mxCell id="pcEnY2RNjyqCKXGkyiXo-49" value="populate palmprint sequences" style="rounded=1;whiteSpace=wrap;html=1;fillColor=#f5f5f5;strokeColor=#666666;fontColor=#333333;dashed=1;dashPattern=8 8;" parent="1" vertex="1">
          <mxGeometry x="550" y="530" width="140" height="40" as="geometry" />
        </mxCell>
        <mxCell id="pcEnY2RNjyqCKXGkyiXo-54" style="edgeStyle=none;rounded=0;orthogonalLoop=1;jettySize=auto;html=1;entryX=0.5;entryY=0;entryDx=0;entryDy=0;" parent="1" source="pcEnY2RNjyqCKXGkyiXo-51" target="pcEnY2RNjyqCKXGkyiXo-53" edge="1">
          <mxGeometry relative="1" as="geometry" />
        </mxCell>
        <mxCell id="pcEnY2RNjyqCKXGkyiXo-51" value="&lt;div&gt;new_palmprints.faa&lt;/div&gt;" style="rounded=0;whiteSpace=wrap;html=1;" parent="1" vertex="1">
          <mxGeometry x="550" y="600" width="140" height="20" as="geometry" />
        </mxCell>
        <mxCell id="pcEnY2RNjyqCKXGkyiXo-56" style="edgeStyle=none;rounded=0;orthogonalLoop=1;jettySize=auto;html=1;entryX=0.5;entryY=0;entryDx=0;entryDy=0;" parent="1" source="pcEnY2RNjyqCKXGkyiXo-53" target="pcEnY2RNjyqCKXGkyiXo-55" edge="1">
          <mxGeometry relative="1" as="geometry" />
        </mxCell>
        <mxCell id="pcEnY2RNjyqCKXGkyiXo-53" value="&lt;div&gt;usearch&lt;/div&gt;&lt;div&gt;(cluster_fast -id 0.9)&lt;br&gt;&lt;/div&gt;" style="rounded=1;whiteSpace=wrap;html=1;fillColor=#f5f5f5;strokeColor=#666666;fontColor=#333333;" parent="1" vertex="1">
          <mxGeometry x="550" y="650" width="140" height="40" as="geometry" />
        </mxCell>
        <mxCell id="pcEnY2RNjyqCKXGkyiXo-55" value="&lt;div&gt;new_palmprint_centroids.faa&lt;/div&gt;" style="rounded=0;whiteSpace=wrap;html=1;" parent="1" vertex="1">
          <mxGeometry x="530" y="720" width="180" height="20" as="geometry" />
        </mxCell>
      </root>
    </mxGraphModel>
  </diagram>
</mxfile>
